<svg width="461" height="160" viewBox="0 0 461 160" fill="none" xmlns="http://www.w3.org/2000/svg">
<g filter="url(#filter0_d_1273_65)">
<path d="M70.4297 99L59.5703 50.3672H59.1406C59.6354 54.1172 59.8828 57.5547 59.8828 60.6797V99H50.0391V41.8906H66.3672L76.1328 86.7734H76.4453L86.1328 41.8906H102.695V99H92.6172V60.2891C92.6172 57.0859 92.7995 53.8047 93.1641 50.4453H92.8516L82.0312 99H70.4297ZM114.688 99V41.8906H124.688V99H114.688ZM173.086 69.8984C173.086 79.3255 171.159 86.5391 167.305 91.5391C163.477 96.513 157.956 99 150.742 99H136.758V41.8906H152.031C158.672 41.8906 163.841 44.3516 167.539 49.2734C171.237 54.1693 173.086 61.0443 173.086 69.8984ZM162.188 70.2109C162.188 57.4505 158.672 51.0703 151.641 51.0703H147.383V89.7031H150.82C154.701 89.7031 157.565 88.0885 159.414 84.8594C161.263 81.6042 162.188 76.7214 162.188 70.2109ZM207.188 99H181.445V41.8906H207.188V51.0703H192.07V64.6641H206.094V73.8828H192.07V89.7031H207.188V99ZM254.805 70.3672C254.805 79.8203 253.034 87.0859 249.492 92.1641C245.951 97.2422 240.885 99.7812 234.297 99.7812C227.682 99.7812 222.604 97.2552 219.062 92.2031C215.521 87.125 213.75 79.8203 213.75 70.2891C213.75 60.8359 215.521 53.5964 219.062 48.5703C222.604 43.5182 227.708 40.9922 234.375 40.9922C240.964 40.9922 246.016 43.5312 249.531 48.6094C253.047 53.6615 254.805 60.9141 254.805 70.3672ZM224.609 70.3672C224.609 76.8776 225.43 81.8385 227.07 85.25C228.711 88.6615 231.12 90.3672 234.297 90.3672C240.703 90.3672 243.906 83.7005 243.906 70.3672C243.906 57.0339 240.729 50.3672 234.375 50.3672C231.146 50.3672 228.711 52.0729 227.07 55.4844C225.43 58.8698 224.609 63.8307 224.609 70.3672ZM286.484 41.8906H297.188L283.75 99H270.234L256.875 41.8906H267.578L275.039 76.7734C275.716 79.7422 276.38 84 277.031 89.5469C277.578 84.8333 278.268 80.5755 279.102 76.7734L286.484 41.8906ZM328.164 99L324.883 84.5859H310L306.719 99H296.094L310.234 41.6562H324.648L338.828 99H328.164ZM322.891 75.1719L319.844 61.8906C319.661 61.0833 319.245 59.0651 318.594 55.8359C317.969 52.5807 317.591 50.4062 317.461 49.3125C317.122 51.5521 316.693 54.026 316.172 56.7344C315.651 59.4167 314.297 65.5625 312.109 75.1719H322.891ZM379.453 99H368.125L358.75 74.5859L354.492 78.8438V99H343.867V41.8906H354.492V70.2109L358.203 61.6562L367.93 41.8906H379.297L366.094 66.6172L379.453 99ZM410.234 99H384.492V41.8906H410.234V51.0703H395.117V64.6641H409.141V73.8828H395.117V89.7031H410.234V99Z" fill="#29FD85"/>
</g>
<defs>
<filter id="filter0_d_1273_65" x="0.0390625" y="0.992188" width="460.195" height="158.789" filterUnits="userSpaceOnUse" color-interpolation-filters="sRGB">
<feFlood flood-opacity="0" result="BackgroundImageFix"/>
<feColorMatrix in="SourceAlpha" type="matrix" values="0 0 0 0 0 0 0 0 0 0 0 0 0 0 0 0 0 0 127 0" result="hardAlpha"/>
<feOffset dy="10"/>
<feGaussianBlur stdDeviation="25"/>
<feColorMatrix type="matrix" values="0 0 0 0 0.160784 0 0 0 0 0.992157 0 0 0 0 0.521569 0 0 0 0.5 0"/>
<feBlend mode="normal" in2="BackgroundImageFix" result="effect1_dropShadow_1273_65"/>
<feBlend mode="normal" in="SourceGraphic" in2="effect1_dropShadow_1273_65" result="shape"/>
</filter>
</defs>
</svg>
