<svg width="28" height="29" viewBox="0 0 28 29" fill="none" xmlns="http://www.w3.org/2000/svg">
<path d="M27.5743 26.4144L20.6718 19.2359C22.4465 17.1263 23.4189 14.472 23.4189 11.7087C23.4189 5.25264 18.166 0 11.7095 0C5.25297 0 0 5.25264 0 11.7087C0 18.1648 5.25297 23.4175 11.7095 23.4175C14.1333 23.4175 16.4432 22.6864 18.418 21.2987L25.3729 28.5317C25.6636 28.8335 26.0546 29 26.4736 29C26.8702 29 27.2464 28.8488 27.532 28.5739C28.1389 27.99 28.1582 27.0217 27.5743 26.4144ZM11.7095 3.05445C16.4818 3.05445 20.3643 6.93666 20.3643 11.7087C20.3643 16.4808 16.4818 20.363 11.7095 20.363C6.9371 20.363 3.05464 16.4808 3.05464 11.7087C3.05464 6.93666 6.9371 3.05445 11.7095 3.05445Z" fill="white"/>
</svg>
